<svg xmlns="http://www.w3.org/2000/svg" viewBox="0 0 800 600" width="800" height="600">
  <defs>
    <linearGradient id="g" x1="0" y1="0" x2="1" y2="1">
      <stop offset="0%" stop-color="#4A2E1A"/>
      <stop offset="100%" stop-color="#8B6914"/>
    </linearGradient>
  </defs>
  <rect width="800" height="600" fill="url(#g)"/>
  <rect y="0.0" width="800" height="44.9" fill="#4A2E1A" opacity="0.92"/><path d="M0 22.4 Q 200.0 14.4 400.0 22.4 T 800 22.4" fill="none" stroke="rgba(44,24,16,0.18)" stroke-width="3"/><rect y="42.9" width="800" height="44.9" fill="#8B6914" opacity="0.92"/><path d="M0 65.3 Q 200.0 54.3 400.0 65.3 T 800 65.3" fill="none" stroke="rgba(44,24,16,0.18)" stroke-width="3"/><rect y="85.7" width="800" height="44.9" fill="#2C1810" opacity="0.92"/><path d="M0 108.1 Q 200.0 94.1 400.0 108.1 T 800 108.1" fill="none" stroke="rgba(44,24,16,0.18)" stroke-width="3"/><rect y="128.6" width="800" height="44.9" fill="#4A2E1A" opacity="0.92"/><path d="M0 151.0 Q 200.0 134.0 400.0 151.0 T 800 151.0" fill="none" stroke="rgba(44,24,16,0.18)" stroke-width="3"/><rect y="171.4" width="800" height="44.9" fill="#8B6914" opacity="0.92"/><path d="M0 193.9 Q 200.0 173.9 400.0 193.9 T 800 193.9" fill="none" stroke="rgba(44,24,16,0.18)" stroke-width="3"/><rect y="214.3" width="800" height="44.9" fill="#2C1810" opacity="0.92"/><path d="M0 236.7 Q 200.0 228.7 400.0 236.7 T 800 236.7" fill="none" stroke="rgba(44,24,16,0.18)" stroke-width="3"/><rect y="257.1" width="800" height="44.9" fill="#4A2E1A" opacity="0.92"/><path d="M0 279.6 Q 200.0 268.6 400.0 279.6 T 800 279.6" fill="none" stroke="rgba(44,24,16,0.18)" stroke-width="3"/><rect y="300.0" width="800" height="44.9" fill="#8B6914" opacity="0.92"/><path d="M0 322.4 Q 200.0 308.4 400.0 322.4 T 800 322.4" fill="none" stroke="rgba(44,24,16,0.18)" stroke-width="3"/><rect y="342.9" width="800" height="44.9" fill="#2C1810" opacity="0.92"/><path d="M0 365.3 Q 200.0 348.3 400.0 365.3 T 800 365.3" fill="none" stroke="rgba(44,24,16,0.18)" stroke-width="3"/><rect y="385.7" width="800" height="44.9" fill="#4A2E1A" opacity="0.92"/><path d="M0 408.1 Q 200.0 388.1 400.0 408.1 T 800 408.1" fill="none" stroke="rgba(44,24,16,0.18)" stroke-width="3"/><rect y="428.6" width="800" height="44.9" fill="#8B6914" opacity="0.92"/><path d="M0 451.0 Q 200.0 443.0 400.0 451.0 T 800 451.0" fill="none" stroke="rgba(44,24,16,0.18)" stroke-width="3"/><rect y="471.4" width="800" height="44.9" fill="#2C1810" opacity="0.92"/><path d="M0 493.9 Q 200.0 482.9 400.0 493.9 T 800 493.9" fill="none" stroke="rgba(44,24,16,0.18)" stroke-width="3"/><rect y="514.3" width="800" height="44.9" fill="#4A2E1A" opacity="0.92"/><path d="M0 536.7 Q 200.0 522.7 400.0 536.7 T 800 536.7" fill="none" stroke="rgba(44,24,16,0.18)" stroke-width="3"/><rect y="557.1" width="800" height="44.9" fill="#8B6914" opacity="0.92"/><path d="M0 579.6 Q 200.0 562.6 400.0 579.6 T 800 579.6" fill="none" stroke="rgba(44,24,16,0.18)" stroke-width="3"/>
  <rect x="0" y="228" width="800" height="144" fill="rgba(44,24,16,0.42)"/>
  <text x="400.0" y="300" text-anchor="middle" fill="#FAF7F2" font-size="28" font-family="Georgia, serif">雕刻过程</text>
  <text x="400.0" y="336" text-anchor="middle" fill="rgba(250,247,242,0.75)" font-size="14" font-family="sans-serif">占位图 · 请替换为实拍</text>
</svg>
