<svg xmlns="http://www.w3.org/2000/svg" viewBox="0 0 240 240" width="240" height="240">
  <rect width="240" height="240" fill="#FAF7F2"/>
  <rect x="16" y="16" width="208" height="208" fill="none" stroke="#2C1810" stroke-width="4"/>
  <rect x="28" y="28" width="52" height="52" fill="#2C1810"/>
  <rect x="36" y="36" width="36" height="36" fill="#FAF7F2"/>
  <rect x="44" y="44" width="20" height="20" fill="#2C1810"/>
  <rect x="160" y="28" width="52" height="52" fill="#2C1810"/>
  <rect x="168" y="36" width="36" height="36" fill="#FAF7F2"/>
  <rect x="176" y="44" width="20" height="20" fill="#2C1810"/>
  <rect x="28" y="160" width="52" height="52" fill="#2C1810"/>
  <rect x="36" y="168" width="36" height="36" fill="#FAF7F2"/>
  <rect x="44" y="176" width="20" height="20" fill="#2C1810"/>
  <g fill="#2C1810">
    <rect x="100" y="32" width="10" height="10"/><rect x="116" y="32" width="10" height="10"/>
    <rect x="100" y="48" width="10" height="10"/><rect x="132" y="48" width="10" height="10"/>
    <rect x="100" y="96" width="10" height="10"/><rect x="116" y="112" width="10" height="10"/>
    <rect x="132" y="96" width="10" height="10"/><rect x="148" y="112" width="10" height="10"/>
    <rect x="100" y="160" width="10" height="10"/><rect x="148" y="160" width="10" height="10"/>
    <rect x="164" y="128" width="10" height="10"/><rect x="180" y="144" width="10" height="10"/>
    <rect x="196" y="160" width="10" height="10"/><rect x="164" y="176" width="10" height="10"/>
    <rect x="180" y="192" width="10" height="10"/><rect x="116" y="192" width="10" height="10"/>
    <rect x="96" y="128" width="14" height="14"/>
  </g>
  <text x="120" y="128" text-anchor="middle" fill="#8B6914" font-size="13" font-family="sans-serif">请替换为微信二维码</text>
</svg>
